<svg width="78" height="78" viewBox="0 0 78 78" fill="none" xmlns="http://www.w3.org/2000/svg">
<g clip-path="url(#clip0_1_223)">
<path d="M0 18.2895C0.101562 17.8419 0.223438 17.4147 0.325 16.9671C1.42188 12.8372 5.26094 9.78558 9.54688 9.78558C18.8094 9.74489 28.0719 9.76523 37.3547 9.78558C39.2031 9.78558 40.6047 11.1283 40.6859 12.8576C40.7672 14.6682 39.4875 16.0923 37.6187 16.2754C37.3141 16.2957 37.0094 16.2957 36.7047 16.2957C27.8484 16.2957 18.9922 16.2957 10.1156 16.2957C8.89687 16.2957 7.77969 16.5806 7.15 17.6588C6.76406 18.3098 6.54063 19.1236 6.54063 19.8763C6.47969 24.9014 6.52031 29.9264 6.52031 34.9515C6.52031 45.9374 6.52031 56.9233 6.52031 67.9296C6.52031 69.6995 7.27187 70.8998 8.73438 71.3474C9.2625 71.5102 9.83125 71.5305 10.3797 71.5305C23.075 71.5305 35.7703 71.5305 48.4656 71.5305C50.6188 71.5305 52.7719 71.5305 54.9453 71.5305C57.2203 71.5305 58.5203 70.2285 58.5203 67.9296C58.5203 59.9953 58.5203 52.0407 58.5203 44.1064C58.5203 42.4585 59.3937 41.1972 60.7953 40.7699C62.6844 40.1799 64.6344 41.3599 64.9594 43.3333C65.0203 43.6385 65.0406 43.9436 65.0406 44.2488C65.0406 52.1831 65.0813 60.1377 65.0406 68.072C65.0203 72.3036 63.05 75.3756 59.2109 77.2066C58.3781 77.5931 57.4437 77.7762 56.55 78.0407C40.5437 78.0407 24.5578 78.0407 8.57188 78.0407C8.45 78 8.34844 77.9389 8.22656 77.8983C4.18438 77.1862 1.17813 74.3177 0.264062 70.3709C0.203125 70.086 0.121875 69.8012 0.040625 69.4961C0 52.4069 0 35.3583 0 18.2895Z" fill="url(#paint0_linear_1_223)"/>
<path d="M78 11.4334C77.7563 12.1658 77.6344 12.9796 77.2688 13.651C76.7609 14.6072 76.1922 15.5633 75.4406 16.3161C65.9141 25.8982 56.3469 35.4194 46.8203 44.9812C46.15 45.6525 45.3578 46.0391 44.4031 46.1408C41.0516 46.5273 37.7 46.9342 34.3484 47.3208C32.2156 47.5649 30.4281 45.856 30.6719 43.7198C31.0578 40.2613 31.4438 36.8028 31.9313 33.3646C32.0328 32.6322 32.4391 31.8388 32.9469 31.3098C42.5344 21.6666 52.1625 12.0438 61.8109 2.44127C64.9188 -0.65106 69.8141 -0.813814 73.6328 2.01404C75.9688 3.76365 77.4313 6.06255 77.8781 8.97179C77.8984 9.09385 77.9594 9.19558 78 9.31764C78 10.0297 78 10.7417 78 11.4334ZM37.5984 40.4037C39.2031 40.2206 40.7063 40.0782 42.1688 39.8544C42.575 39.7934 43.0219 39.5493 43.3266 39.2644C52.4266 30.1909 61.5063 21.1173 70.5859 12.0438C71.6219 11.0062 71.7641 10.1518 71.1141 8.82938C70.5453 7.6901 69.6313 6.97805 68.4328 6.63219C67.6406 6.40841 66.9094 6.53047 66.2797 7.18149C57.0578 16.4178 47.8359 25.6338 38.6141 34.8497C38.4516 35.0125 38.2688 35.2566 38.2484 35.4804C38.0047 37.0672 37.8219 38.6745 37.5984 40.4037Z" fill="url(#paint1_linear_1_223)"/>
</g>
<defs>
<linearGradient id="paint0_linear_1_223" x1="6.27353e-07" y1="9.99997" x2="56.5" y2="78" gradientUnits="userSpaceOnUse">
<stop stop-color="#F801C8"/>
<stop offset="0.494792" stop-color="#0100FF"/>
<stop offset="1" stop-color="#01A9ED"/>
</linearGradient>
<linearGradient id="paint1_linear_1_223" x1="37.5002" y1="-4.59852e-05" x2="87.0002" y2="63" gradientUnits="userSpaceOnUse">
<stop stop-color="#F801C8"/>
<stop offset="0.494792" stop-color="#0100FF"/>
<stop offset="1" stop-color="#01A9ED"/>
</linearGradient>
<clipPath id="clip0_1_223">
<rect width="78" height="78" fill="white"/>
</clipPath>
</defs>
</svg>
