<svg width="16" height="15" viewBox="0 0 16 15" fill="none" xmlns="http://www.w3.org/2000/svg">
<g clip-path="url(#clip0_1_67)">
<path d="M0 7.48178C0 5.85213 0 4.21729 0 2.58244C0 1.08296 1.09438 0 2.61493 0C5.37192 0 8.1289 0 10.8859 0C11.3173 0 11.6488 0.229087 11.7593 0.59875C11.8961 1.08296 11.5909 1.56716 11.0911 1.65047C10.9859 1.66609 10.8806 1.67129 10.7754 1.67129C8.06051 1.67129 5.34035 1.67129 2.62545 1.67129C2.34134 1.67129 2.09405 1.73898 1.89938 1.95245C1.75206 2.11385 1.68892 2.30649 1.68892 2.52516C1.68892 5.84693 1.68892 9.16348 1.68892 12.4852C1.68892 12.9955 2.04143 13.3287 2.56758 13.3287C5.90332 13.3287 9.23907 13.3287 12.5748 13.3287C13.1325 13.3287 13.4693 12.9903 13.4693 12.4384C13.4693 10.8348 13.4693 9.23638 13.4745 7.63277C13.4745 7.4974 13.485 7.35682 13.5271 7.23186C13.6534 6.84658 14.0427 6.6227 14.4584 6.68518C14.8477 6.74245 15.1529 7.08608 15.1582 7.49219C15.1634 8.03367 15.1582 8.57515 15.1582 9.11142C15.1582 10.2204 15.1582 11.3242 15.1582 12.4332C15.1582 13.917 14.0585 15.0052 12.5538 15.0052C9.23907 15.0052 5.92437 15.0052 2.60441 15.0052C1.09964 14.9948 0 13.9118 0 12.4228C0 10.7775 0 9.13225 0 7.48178Z" fill="#888C9F"/>
<path d="M7.61855 8.01288C7.67117 7.93999 7.70274 7.86709 7.76061 7.81503C10.0072 5.59184 12.2539 3.36866 14.4952 1.14547C14.7215 0.92159 14.9793 0.791427 15.3108 0.853905C15.6264 0.911177 15.8474 1.09341 15.9527 1.39538C16.0579 1.69216 16.0053 1.97331 15.7948 2.21801C15.7475 2.27008 15.6948 2.32214 15.6422 2.37421C13.1904 4.80045 10.7386 7.22669 8.29202 9.64773C7.80797 10.1267 7.36074 10.1267 6.87669 9.64773C6.07695 8.85633 5.27196 8.06494 4.47748 7.27355C4.08287 6.87785 4.14075 6.26869 4.59849 5.97192C4.94575 5.74804 5.3614 5.7949 5.67709 6.10208C6.26111 6.6748 6.83986 7.25272 7.42388 7.82544C7.46597 7.87751 7.51859 7.92437 7.61855 8.01288Z" fill="#0100FF"/>
</g>
<defs>
<clipPath id="clip0_1_67">
<rect width="16" height="15" fill="white"/>
</clipPath>
</defs>
</svg>
