<svg width="251" height="55" viewBox="0 0 251 55" fill="none" xmlns="http://www.w3.org/2000/svg">
<g clip-path="url(#clip0_1_138)">
<path d="M161.203 0C161.203 3.02899 161.203 5.89855 161.203 8.92754C161.203 10.2029 161.535 10.6812 163.026 10.6812C165.18 10.5217 167.333 10.6812 169.487 10.6812C170.647 10.6812 171.144 10.8406 171.144 12.1159C171.144 14.9855 171.144 17.8551 171.144 20.5652C171.144 21.6812 170.813 22 169.653 22C167.499 21.8406 165.18 21.8406 163.026 21.6812C161.866 21.5217 161.203 21.8406 161.203 23.1159C161.203 27.8986 161.369 32.6812 161.203 37.4638C161.203 40.0145 163.854 43.0435 166.671 42.4058C167.665 42.2464 168.824 42.2464 169.984 42.2464C170.481 45.7536 171.144 49.2609 171.475 52.7681C171.475 53.087 170.316 53.8841 169.653 54.0435C168.327 54.5217 167.002 54.5217 165.677 54.8406C165.345 54.8406 165.18 54.8406 164.848 54.8406C164.351 54.8406 163.854 54.8406 163.191 54.8406C162.86 54.8406 162.363 54.8406 162.032 54.8406C161.038 54.5217 160.209 54.2029 159.215 54.0435C153.748 52.9275 149.44 50.6957 147.949 45.1159C147.618 43.5217 147.286 41.9275 147.286 40.3333C147.286 35.2319 147.286 29.971 147.286 24.8696C147.286 23.913 147.452 23.1159 145.961 23.1159C140.659 23.1159 135.192 23.1159 129.89 23.1159C129.393 23.1159 128.731 23.913 128.731 24.2319C128.565 28.6957 128.565 33.1594 128.731 37.6232C128.896 40.3333 131.05 42.7246 134.032 42.2464C135.026 42.087 136.186 42.087 137.346 42.087C137.512 42.8841 137.677 43.6812 137.843 44.4783C138.174 46.7101 138.506 49.1015 138.837 51.3333C139.168 53.5652 139.003 53.7246 136.683 54.0435C135.689 54.2029 134.529 54.5217 133.535 54.8406C133.204 54.8406 132.707 54.8406 132.376 54.8406C131.879 54.8406 131.382 54.8406 130.719 54.8406C130.387 54.8406 129.89 54.8406 129.559 54.8406C126.908 54.0435 123.926 53.4058 121.441 52.2899C117.465 50.5362 115.311 47.1884 115.311 42.8841C115.145 36.3478 115.311 29.8116 115.311 23.4348C115.311 21.6812 114.814 21.2029 113.157 21.8406C112.991 21.8406 112.826 21.8406 112.826 22C109.678 22.4783 109.512 22.1594 109.512 19.2899C109.512 16.8986 109.512 14.6667 109.512 12.2754C109.512 11.1594 109.844 10.6812 111.003 10.6812C115.477 10.5217 115.477 10.5217 115.477 6.21739C115.477 4.14493 115.311 2.07246 115.145 0C119.784 0 124.423 0 129.062 0C129.062 2.86957 129.062 5.73913 129.062 8.44928C129.062 9.72464 129.393 10.2029 130.884 10.2029C136.02 10.2029 140.991 10.2029 146.127 10.2029C147.618 10.2029 147.949 9.72464 147.949 8.44928C147.949 5.57971 147.949 2.86957 147.949 0C151.925 0 156.564 0 161.203 0Z" fill="white"/>
<path d="M0 11.3187C4.14191 11.3187 8.28383 11.3187 12.2601 11.3187C14.0825 11.3187 14.5795 11.9564 14.2482 13.3912C13.9168 14.9854 13.5855 16.4202 13.5855 18.0144C13.5855 18.6521 13.9168 19.2897 14.0825 19.9274C14.5795 19.4492 15.0766 19.1303 15.4079 18.4926C16.7333 15.7825 18.3901 13.3912 21.0409 11.797C27.8337 7.49264 35.7861 11.1593 36.6145 18.8115C36.6145 19.2897 36.9459 19.768 37.2772 20.2463C37.7743 19.9274 38.437 19.6086 38.6026 19.1303C40.9221 14.9854 43.9043 11.3187 48.8746 10.3622C56.6614 8.92743 61.6317 11.797 61.963 19.4492C62.4601 30.2897 62.2944 41.1303 62.4601 51.9709C62.4601 53.7245 61.963 54.2028 60.3063 54.0434C56.9927 53.8839 53.6792 53.8839 50.3657 54.0434C49.0403 54.0434 48.5432 53.7245 48.5432 52.2897C48.5432 45.1158 48.5432 38.1013 48.5432 30.9274C48.5432 29.4926 48.3776 28.0579 48.0462 26.6231C47.5492 24.8695 46.8865 23.1158 44.7327 22.9564C41.7505 22.6376 40.2594 23.4347 39.431 25.9854C38.934 27.4202 38.437 29.1738 38.437 30.768C38.2713 37.7825 38.2713 44.9564 38.437 51.9709C38.437 53.4057 38.1056 54.0434 36.4488 54.0434C33.1353 53.8839 29.9875 53.8839 26.6739 54.0434C25.1828 54.0434 24.8515 53.5651 24.8515 52.2897C24.8515 45.7535 25.0172 39.2173 24.8515 32.681C24.8515 30.4492 24.5201 28.2173 24.0231 25.9854C23.6917 24.0724 22.2007 22.9564 20.2125 22.6376C18.2244 22.4782 16.5677 23.2753 15.905 25.0289C15.0766 27.1013 14.2482 29.3332 14.2482 31.5651C14.0825 38.4202 14.0825 45.2753 14.2482 52.1303C14.2482 53.7245 13.7512 54.0434 12.2601 54.0434C8.28383 53.8839 4.30759 54.0434 0.331353 54.0434C0 39.855 0 25.6666 0 11.3187Z" fill="white"/>
<path d="M190.528 55C188.043 54.5217 185.558 54.0435 183.073 53.5652C178.268 52.6087 173.629 48.3044 173.795 42.4058C174.126 35.5507 173.795 28.6957 173.795 22C173.795 16.4203 179.096 11.1594 185.061 11.1594C192.019 11.1594 198.812 11.1594 205.77 11.1594C211.072 11.1594 215.048 15.3044 215.711 19.4493C216.374 23.1159 216.042 26.4638 214.054 29.6522C211.9 33.3188 208.421 34.913 204.114 34.913C199.143 35.0725 194.173 35.0725 189.203 34.913C187.546 34.913 187.049 35.3913 187.215 36.8261C187.215 37.3044 187.215 37.7826 187.215 38.2609C187.215 41.4493 188.209 42.7246 191.356 43.6812C193.842 44.4783 197.652 43.5217 198.978 41.6087C199.475 40.8116 199.64 39.8551 199.972 38.5797C201.131 38.5797 202.622 38.5797 203.948 38.5797C205.77 38.5797 207.593 38.5797 209.581 38.5797C213.391 38.5797 213.723 39.058 212.894 42.7246C211.403 48.4638 207.427 51.8116 201.628 53.2464C198.812 53.8841 195.664 54.0435 192.682 54.5217C192.185 54.5217 191.688 54.8406 191.191 54.8406C191.191 55 190.859 55 190.528 55ZM192.848 28.058V28.2174C195.001 28.058 196.989 27.8986 199.143 27.4203C201.131 26.942 201.96 25.1884 201.794 22.6377C201.628 20.8841 200.634 19.6087 198.978 19.2899C195.664 18.8116 192.35 18.8116 189.534 20.8841C187.712 22.1594 186.552 25.3478 187.712 27.1015C188.209 27.7391 190.031 27.5797 191.356 27.8986C191.688 28.058 192.35 28.058 192.848 28.058Z" fill="white"/>
<path d="M80.8501 25.9854C76.3769 25.9854 71.9036 25.9854 67.2647 25.9854C67.4303 22.797 68.093 19.9275 69.9155 17.2173C72.4006 13.7101 76.2112 11.797 80.5188 11.1593C86.1518 10.2028 91.7848 10.0434 97.4178 11.3188C104.542 12.913 106.861 16.8985 107.193 23.1159C107.524 29.4927 107.358 35.7101 107.193 42.0869C107.193 48.7825 101.063 54.2028 94.6013 53.884C88.1399 53.5651 81.6785 53.7246 75.2171 53.884C69.0871 54.0434 65.4422 49.5796 64.7795 44.4782C64.2825 41.2898 64.9452 38.1014 66.7676 35.2318C69.0871 31.5651 72.732 30.1304 76.8739 29.9709C81.8442 29.8115 86.6488 29.9709 91.6191 29.9709C92.9445 29.9709 93.6072 29.6521 93.4416 28.2173C93.2759 26.7825 93.4416 25.3478 92.9445 24.0724C92.6132 23.1159 91.6191 21.8405 90.6251 21.5217C85.9861 20.5651 81.3472 20.7246 80.8501 25.9854ZM88.3056 36.826V36.6666C86.3175 36.826 84.3293 36.9854 82.5069 37.1448C80.5188 37.4637 79.5247 38.7391 79.1934 40.4927C78.6963 42.7246 79.5247 44.3188 81.1815 45.1159C84.1637 46.7101 90.9564 45.4347 92.6132 42.4057C93.4416 40.9709 93.2759 38.8985 93.1102 37.1448C93.1102 36.9854 90.9564 36.826 89.631 36.6666C89.134 36.6666 88.6369 36.826 88.3056 36.826Z" fill="white"/>
<path d="M232.444 11C231.947 13.8696 231.616 16.4203 231.285 18.971C231.45 19.1305 231.616 19.2899 231.616 19.4493C232.113 19.1305 232.776 18.8116 233.107 18.3334C237.083 12.4348 243.379 9.72467 251.166 10.8406C250.006 15.6232 248.846 20.4058 247.852 25.1884C245.367 25.029 243.048 24.8696 240.728 24.5508C235.095 24.0725 232.113 28.3768 232.113 32.8406C232.113 39.2174 232.113 45.4348 232.113 51.8116C232.113 53.2464 231.782 53.8841 230.125 53.7247C226.811 53.5652 223.663 53.5652 220.35 53.7247C219.024 53.7247 218.527 53.4058 218.527 52.1305C218.527 38.8986 218.527 25.8261 218.527 12.5942C218.527 11.7971 218.527 11 219.853 11C223.663 11 227.805 11 232.444 11Z" fill="white"/>
</g>
<defs>
<clipPath id="clip0_1_138">
<rect width="251" height="55" fill="white"/>
</clipPath>
</defs>
</svg>
