<svg width="73" height="73" viewBox="0 0 73 73" fill="none" xmlns="http://www.w3.org/2000/svg">
<g clip-path="url(#clip0_1_203)">
<path d="M34.7578 72.9565C29.4657 72.9565 24.1736 73 18.8598 72.9347C15.7673 72.8911 12.7619 72.2378 9.97434 70.8875C4.35561 68.1653 1.41557 63.483 0.392005 57.4723C0.130668 55.8825 0.021778 54.2273 0.021778 52.6158C-0.021778 42.9899 0.021778 33.3857 0 23.7599C0 20.4496 0.435561 17.2047 1.76402 14.1557C4.24672 8.44989 8.71122 5.18318 14.722 4.00717C16.6602 3.63694 18.6638 3.4845 20.6238 3.4845C29.923 3.44094 39.2005 3.46272 48.4997 3.46272C49.0877 3.46272 49.4579 3.35383 49.8064 2.7876C50.8517 1.11069 52.4851 0.152457 54.4016 0.0871231C58.5176 -0.0435451 62.6119 1.09663e-05 66.7061 1.09663e-05C67.1417 1.09663e-05 67.5773 0.0871231 67.9911 0.196013C70.8222 0.827577 72.7604 2.83116 72.8911 5.74941C73.0653 9.84369 72.9782 13.938 72.9782 18.054C72.9782 18.5549 72.8693 19.0776 72.7387 19.5785C72.3249 21.1247 71.5191 22.4314 70.1035 23.259C69.6244 23.5421 69.5155 23.8687 69.5155 24.3696C69.5373 33.7124 69.5155 43.0552 69.5373 52.398C69.5373 55.7954 69.1453 59.1274 67.7733 62.2634C65.3124 67.9911 60.8479 71.2578 54.8371 72.4338C52.8989 72.8258 50.8953 72.9347 48.9353 72.9782C44.2094 73.0436 39.4836 73 34.7578 73C34.7578 72.9782 34.7578 72.9565 34.7578 72.9565ZM48.6739 8.66767C48.3037 8.66767 48.0641 8.66767 47.8246 8.66767C38.6343 8.66767 29.4657 8.66767 20.2754 8.66767C19.1647 8.66767 18.054 8.73301 16.9433 8.86367C13.7419 9.29924 10.8455 10.4099 8.6241 12.8926C6.29385 15.4842 5.3574 18.6638 5.29206 22.0394C5.1614 27.8759 5.22673 33.6906 5.22673 39.5054C5.22673 44.4054 5.22673 49.2837 5.27029 54.1838C5.29206 56.0349 5.70585 57.8425 6.42452 59.6283C6.75119 59.4323 7.01253 59.2581 7.27387 59.0838C11.2592 56.4051 15.2664 53.7264 19.2518 51.0477C20.8416 49.9806 22.5838 49.5233 24.5003 49.6757C26.4821 49.8499 28.0719 50.8517 29.5092 52.1584C30.6853 53.2255 32.0791 53.8789 33.6689 54.0531C36.0427 54.3144 38.1116 53.6829 39.9192 52.1149C44.5797 48.0859 49.2619 44.057 53.966 40.0716C56.8189 37.6325 60.7607 37.5889 63.7226 39.8538C63.875 39.9627 64.0492 40.0498 64.2452 40.1805C64.2452 34.8667 64.2452 29.6399 64.2452 24.3261C63.8097 24.3261 63.4394 24.3261 63.0692 24.3261C60.1945 24.2825 57.298 24.3696 54.4451 24.1954C51.5922 24.0212 49.545 22.1483 48.9353 19.3607C48.7393 18.4896 48.6957 17.5749 48.6739 16.7038C48.6521 14.0468 48.6739 11.4117 48.6739 8.66767ZM63.0257 10.889C63.3741 11.2157 63.5483 11.3681 63.7443 11.5424C64.659 12.3264 65.8568 12.3046 66.7061 11.4988C67.5555 10.693 67.6644 9.4299 66.8586 8.55878C65.3777 6.99076 63.875 5.48808 62.307 4.00717C61.4794 3.22316 60.2381 3.24494 59.4105 4.02895C57.886 5.48808 56.3834 6.99076 54.9242 8.51523C54.0967 9.38635 54.1838 10.6495 55.0113 11.4553C55.8171 12.261 57.0367 12.3046 57.9732 11.5424C58.1692 11.3681 58.3652 11.1939 58.6918 10.9108C58.6918 11.3681 58.6918 11.673 58.6918 11.9562C58.6918 14.1775 58.67 16.4207 58.7136 18.642C58.7354 19.9487 59.6501 20.8198 60.8696 20.8198C62.0892 20.8198 63.0039 19.9705 63.0474 18.6638C63.091 17.0304 63.0692 15.3971 63.0692 13.7855C63.0474 12.8708 63.0257 11.9779 63.0257 10.889Z" fill="url(#paint0_linear_1_203)"/>
<path d="M24.3479 32.5582C19.7745 32.5582 16.0504 28.8559 16.0504 24.2825C16.0504 19.7527 19.7527 16.0504 24.2825 16.0287C28.8777 16.0069 32.6017 19.6874 32.6235 24.2608C32.6453 28.8342 28.9212 32.5582 24.3479 32.5582Z" fill="url(#paint1_linear_1_203)"/>
</g>
<defs>
<linearGradient id="paint0_linear_1_203" x1="0.499999" y1="7.00002" x2="63.5" y2="80" gradientUnits="userSpaceOnUse">
<stop stop-color="#F801C8"/>
<stop offset="0.494792" stop-color="#0100FF"/>
<stop offset="1" stop-color="#01A9ED"/>
</linearGradient>
<linearGradient id="paint1_linear_1_203" x1="16.1639" y1="17.6147" x2="30.4189" y2="34.1808" gradientUnits="userSpaceOnUse">
<stop stop-color="#F801C8"/>
<stop offset="0.494792" stop-color="#0100FF"/>
<stop offset="1" stop-color="#01A9ED"/>
</linearGradient>
<clipPath id="clip0_1_203">
<rect width="73" height="73" fill="white"/>
</clipPath>
</defs>
</svg>
