<svg width="75" height="75" viewBox="0 0 75 75" fill="none" xmlns="http://www.w3.org/2000/svg">
<g clip-path="url(#clip0_1_226)">
<path d="M74.9999 49.2027C74.8972 49.4228 74.8091 49.6576 74.7064 49.863C74.1341 51.0517 72.8134 51.7413 71.5661 51.4919C70.2014 51.2277 69.2182 50.1125 69.1449 48.7478C69.1302 48.4837 69.1449 48.2049 69.1449 47.9407C69.1449 36.0252 69.1449 24.1244 69.1449 12.209C69.1449 8.24692 66.7236 5.84034 62.7469 5.84034C45.9009 5.84034 29.0695 5.84034 12.2235 5.84034C8.30551 5.85502 5.86958 8.29094 5.86958 12.1943C5.86958 29.055 5.86958 45.9157 5.86958 62.791C5.86958 66.6944 8.30551 69.1303 12.2235 69.1303C29.0695 69.1303 45.9009 69.0863 62.7469 69.1597C66.6062 69.1743 69.1889 66.3422 69.1595 63.1285C69.1449 61.7492 70.2014 60.6339 71.5661 60.3845C72.8868 60.135 74.2075 60.8687 74.7651 62.16C74.8385 62.3361 74.9118 62.5122 74.9999 62.6883C74.9999 63.3193 74.9999 63.9503 74.9999 64.596C74.9559 64.728 74.8825 64.8601 74.8678 64.9922C74.0167 70.6711 69.1595 74.9706 63.4219 74.9706C46.1503 75 28.8641 75 11.5925 74.9706C5.23859 74.956 0.0292382 69.7466 0.014564 63.3927C-0.0147845 46.1211 -0.000110259 28.8495 0.014564 11.578C0.014564 6.2659 3.77117 1.59949 8.92182 0.337507C9.42075 0.220113 9.905 0.117394 10.4039 0C28.4679 0 46.5319 0 64.5959 0C64.7279 0.0440227 64.86 0.117394 64.9921 0.132068C69.6731 0.836431 73.4444 4.24085 74.633 8.84856C74.7651 9.36216 74.8678 9.87576 74.9852 10.3894C74.9999 23.332 74.9999 36.2747 74.9999 49.2027Z" fill="url(#paint0_linear_1_226)"/>
<path d="M44.9765 25.6799C45.2847 25.4011 45.4755 25.225 45.6515 25.049C49.3935 21.307 53.1501 17.5651 56.892 13.8085C57.7725 12.928 58.7703 12.5025 60.0029 12.8693C61.9693 13.4416 62.747 15.7602 61.5291 17.4037C61.3236 17.6825 61.0742 17.9173 60.8394 18.1521C57.1708 21.8353 53.4876 25.5039 49.819 29.1871C49.6429 29.3632 49.4668 29.5686 49.1734 29.8621C49.5549 29.8621 49.775 29.8621 50.0098 29.8621C52.431 29.8621 54.8376 29.8621 57.2589 29.8621C59.0491 29.8621 60.3551 31.1094 60.3551 32.7823C60.3551 34.4551 59.0638 35.7171 57.2735 35.7171C53.6783 35.7318 50.0978 35.7318 46.5026 35.7171C42.3352 35.6878 39.1362 32.5035 39.1215 28.336C39.1068 24.7408 39.1068 21.1603 39.1215 17.5651C39.1215 15.7895 40.3835 14.4835 42.0564 14.4835C43.7292 14.4835 44.9619 15.7895 44.9765 17.5798C44.9912 20.001 44.9765 22.4076 44.9765 24.8288C44.9765 25.0783 44.9765 25.3131 44.9765 25.6799Z" fill="url(#paint1_linear_1_226)"/>
<path d="M30.1849 48.8066C27.3821 51.6093 24.7261 54.28 22.0701 56.9361C20.7787 58.2274 19.4874 59.5334 18.1814 60.8101C16.8901 62.0721 15.1145 62.1308 13.9259 60.9568C12.7079 59.7682 12.7519 57.9633 14.0579 56.6573C17.8145 52.886 21.5858 49.1294 25.3424 45.3728C25.5332 45.182 25.768 45.0646 25.9881 44.9032C25.9441 44.8445 25.9 44.7711 25.856 44.7125C25.6506 44.6978 25.4451 44.6684 25.2397 44.6684C22.8184 44.6684 20.4119 44.6684 17.9906 44.6684C16.127 44.6684 14.821 43.4651 14.7916 41.7776C14.777 40.046 16.0976 38.8134 17.9906 38.8134C21.4831 38.8134 24.9756 38.7987 28.468 38.8134C32.8409 38.8281 36.0106 41.983 36.0252 46.3266C36.0399 49.8484 36.0252 53.3556 36.0252 56.8774C36.0252 58.7263 34.8073 60.047 33.1051 60.047C31.4029 60.0617 30.1702 58.741 30.1702 56.9067C30.1702 54.5148 30.1702 52.1229 30.1702 49.731C30.1849 49.4816 30.1849 49.2468 30.1849 48.8066Z" fill="url(#paint2_linear_1_226)"/>
</g>
<defs>
<linearGradient id="paint0_linear_1_226" x1="2.00006" y1="5" x2="71.5001" y2="78.5" gradientUnits="userSpaceOnUse">
<stop stop-color="#F801C8"/>
<stop offset="0.494792" stop-color="#0100FF"/>
<stop offset="1" stop-color="#01A9ED"/>
</linearGradient>
<linearGradient id="paint1_linear_1_226" x1="39.7246" y1="14.2703" x2="61.031" y2="36.8106" gradientUnits="userSpaceOnUse">
<stop stop-color="#F801C8"/>
<stop offset="0.494792" stop-color="#0100FF"/>
<stop offset="1" stop-color="#01A9ED"/>
</linearGradient>
<linearGradient id="paint2_linear_1_226" x1="13.658" y1="40.3398" x2="34.966" y2="62.8673" gradientUnits="userSpaceOnUse">
<stop stop-color="#F801C8"/>
<stop offset="0.494792" stop-color="#0100FF"/>
<stop offset="1" stop-color="#01A9ED"/>
</linearGradient>
<clipPath id="clip0_1_226">
<rect width="75" height="75" fill="white"/>
</clipPath>
</defs>
</svg>
