<svg width="78" height="83" viewBox="0 0 78 83" fill="none" xmlns="http://www.w3.org/2000/svg">
<g clip-path="url(#clip0_1_216)">
<path d="M57.1016 29.0838C54.0073 29.0838 51.0082 28.9872 48.0091 29.1079C41.1065 29.3495 35.5844 25.0014 34.3943 18.1894C34.2276 17.199 34.2752 16.1603 34.2514 15.1216C34.2276 12.078 34.2514 9.05847 34.2514 5.94235C33.8944 5.91819 33.585 5.89403 33.2518 5.89403C27.0632 5.89403 20.8984 5.89403 14.7098 5.89403C13.7101 5.89403 12.6866 5.94235 11.6869 6.11144C8.33079 6.61871 6.379 8.67197 5.95056 12.1263C5.83155 13.0201 5.78395 13.938 5.78395 14.8318C5.78395 30.0742 5.78395 45.3408 5.78395 60.5832C5.78395 61.5978 5.83155 62.6365 5.99817 63.651C6.59322 67.1295 8.75923 69.1103 12.3296 69.4243C13.3055 69.5209 14.2814 69.5451 15.2572 69.5692C21.2316 69.5934 27.206 69.5692 33.1565 69.5934C35.2749 69.5934 36.6317 71.4051 36.0366 73.3617C35.6558 74.5937 34.5609 75.3667 33.0851 75.3667C30.4431 75.3908 27.801 75.3667 25.159 75.3667C21.1126 75.3908 17.09 75.3908 13.0436 75.415C5.45072 75.4875 -0.428442 69.1586 0.023801 61.477C0.0476033 61.0663 0.0714055 60.6315 0.0714055 60.2209C0.0714055 45.22 0.0714055 30.195 0.0952078 15.1941C0.0952078 13.3582 0.0714055 11.4741 0.476044 9.73484C1.92798 3.5509 7.85474 -0.555618 14.0671 0.0724382C14.448 0.12075 14.8288 0.12075 15.2334 0.12075C22.3265 0.12075 29.4196 0.144906 36.5365 0.0965942C37.7742 0.0965942 38.7501 0.48309 39.6308 1.37686C46.938 8.84106 54.2691 16.257 61.624 23.697C62.4571 24.5425 62.8618 25.4604 62.8618 26.6682C62.8142 30.3399 62.8618 34.0116 62.838 37.7075C62.838 39.2776 61.7192 40.4613 60.2197 40.6304C58.863 40.7753 57.5062 39.7607 57.2206 38.3355C57.1492 37.9973 57.1492 37.6109 57.1492 37.2485C57.1016 34.543 57.1016 31.8617 57.1016 29.0838ZM40.1544 10.4112C40.1544 12.4886 40.0116 14.7593 40.202 17.0058C40.4162 19.5663 41.6539 21.5954 44.1532 22.5375C46.9857 23.6004 49.9133 23.1656 52.841 23.2622C48.509 18.89 44.2722 14.566 40.1544 10.4112Z" fill="url(#paint0_linear_1_216)"/>
<path d="M59.9817 46.4036C69.9072 46.3795 78 54.6167 78 64.6897C77.9762 74.8352 69.9786 82.9999 60.0531 83.0241C49.9371 83.0483 41.9396 74.9318 41.9158 64.6172C41.892 54.5683 49.9847 46.4278 59.9817 46.4036ZM59.8865 77.2267C66.6463 77.2991 72.2399 71.7433 72.2875 64.8588C72.3589 57.9019 66.9081 52.2252 60.1007 52.1769C53.2218 52.1044 47.6759 57.5878 47.6045 64.5448C47.5331 71.5259 52.96 77.1542 59.8865 77.2267Z" fill="url(#paint1_linear_1_216)"/>
<path d="M31.4904 34.8329C35.87 34.8329 40.2734 34.8087 44.653 34.8329C46.6762 34.8329 47.9853 36.5963 47.4617 38.4804C47.1761 39.5191 46.4858 40.1955 45.4623 40.4612C45.0101 40.582 44.534 40.582 44.058 40.6062C35.632 40.6062 27.206 40.6062 18.78 40.6062C18.2325 40.6062 17.6375 40.5579 17.1138 40.3888C15.8761 39.954 15.0906 38.6012 15.3049 37.3209C15.5191 35.8957 16.5664 34.8812 17.9469 34.857C19.9939 34.8087 22.0409 34.8329 24.0879 34.8329C26.5633 34.8329 29.015 34.8329 31.4904 34.8329Z" fill="url(#paint2_linear_1_216)"/>
<path d="M25.7302 50.2445C28.1581 50.2445 30.5859 50.2445 33.0375 50.2445C34.8941 50.2445 36.227 51.4765 36.2032 53.1432C36.1794 54.8341 34.8703 56.0178 32.9899 56.0178C28.1581 56.0178 23.3262 56.0178 18.4944 56.0178C16.614 56.0178 15.3048 54.8341 15.281 53.1432C15.2572 51.404 16.5902 50.2203 18.5182 50.2203C20.9222 50.2445 23.3262 50.2445 25.7302 50.2445Z" fill="url(#paint3_linear_1_216)"/>
<path d="M62.7904 67.6126C62.7904 68.3615 62.8142 68.9412 62.7904 69.5451C62.7427 71.1636 61.505 72.4197 59.9579 72.4438C58.4107 72.4438 57.1492 71.1877 57.1016 69.5693C57.0778 68.9412 57.1016 68.3132 57.1016 67.6126C56.3875 67.6126 55.7687 67.6368 55.1736 67.6126C53.5789 67.5643 52.3412 66.2599 52.3412 64.7139C52.3412 63.1438 53.5789 61.8877 55.1974 61.8393C55.7925 61.8152 56.3875 61.8393 57.1016 61.8393C57.1016 61.1871 57.0778 60.5591 57.1016 59.9552C57.1492 58.2643 58.3869 56.984 59.9817 57.0081C61.5288 57.0323 62.7427 58.2884 62.7904 59.931C62.8142 60.5349 62.7904 61.1388 62.7904 61.8393C63.4568 61.8393 64.0757 61.8152 64.6707 61.8393C66.2893 61.8877 67.527 63.1196 67.5508 64.6898C67.5746 66.284 66.3131 67.5643 64.6469 67.6126C64.0757 67.6126 63.4806 67.6126 62.7904 67.6126Z" fill="url(#paint4_linear_1_216)"/>
</g>
<defs>
<linearGradient id="paint0_linear_1_216" x1="4.83528" y1="-0.453361" x2="62.8242" y2="69.6681" gradientUnits="userSpaceOnUse">
<stop stop-color="#F801C8"/>
<stop offset="0.494792" stop-color="#0100FF"/>
<stop offset="1" stop-color="#01A9ED"/>
</linearGradient>
<linearGradient id="paint1_linear_1_216" x1="44.6916" y1="46.1789" x2="71.6269" y2="84.6768" gradientUnits="userSpaceOnUse">
<stop stop-color="#F801C8"/>
<stop offset="0.494792" stop-color="#0100FF"/>
<stop offset="1" stop-color="#01A9ED"/>
</linearGradient>
<linearGradient id="paint2_linear_1_216" x1="17.7551" y1="34.7867" x2="18.8562" y2="43.7078" gradientUnits="userSpaceOnUse">
<stop stop-color="#F801C8"/>
<stop offset="0.494792" stop-color="#0100FF"/>
<stop offset="1" stop-color="#01A9ED"/>
</linearGradient>
<linearGradient id="paint3_linear_1_216" x1="16.8903" y1="50.1848" x2="18.5634" y2="58.9432" gradientUnits="userSpaceOnUse">
<stop stop-color="#F801C8"/>
<stop offset="0.494792" stop-color="#0100FF"/>
<stop offset="1" stop-color="#01A9ED"/>
</linearGradient>
<linearGradient id="paint4_linear_1_216" x1="53.5112" y1="56.9131" x2="64.8648" y2="73.1405" gradientUnits="userSpaceOnUse">
<stop stop-color="#F801C8"/>
<stop offset="0.494792" stop-color="#0100FF"/>
<stop offset="1" stop-color="#01A9ED"/>
</linearGradient>
<clipPath id="clip0_1_216">
<rect width="78" height="83" fill="white"/>
</clipPath>
</defs>
</svg>
