<svg width="79" height="79" viewBox="0 0 79 79" fill="none" xmlns="http://www.w3.org/2000/svg">
<g clip-path="url(#clip0_79_23)">
<path d="M51.8354 0C53.6491 0.618315 54.3293 1.87555 54.3293 3.77172C54.3086 23.5578 54.3086 43.3645 54.3086 63.1505C54.3086 64.8612 53.5667 66.0154 52.227 66.4894C50.2484 67.149 48.2285 65.7475 48.1461 63.6452C48.1255 62.8208 48.1461 62.017 48.1461 61.0895C47.7957 61.0895 47.4866 61.0895 47.198 61.0895C35.6355 61.0895 24.0731 61.0895 12.49 61.0895C6.43047 61.0895 1.48396 57.0498 0.267936 51.1552C0.103052 50.3308 0.0206105 49.4652 0.0206105 48.6408C0 38.418 0 28.2158 0 18.0136C0 11.006 5.46178 5.56483 12.49 5.56483C24.0318 5.54422 35.5737 5.56483 47.1156 5.56483C47.4247 5.56483 47.7339 5.56483 48.1255 5.56483C48.1255 4.96713 48.1667 4.41065 48.1255 3.85416C47.9812 1.93739 48.7438 0.618315 50.5988 0C51.011 0 51.4232 0 51.8354 0ZM48.0843 54.927C48.0843 40.479 48.0843 26.1341 48.0843 11.7274C47.7545 11.7274 47.466 11.7274 47.198 11.7274C35.7592 11.7274 24.3204 11.7274 12.8816 11.7274C8.75946 11.7274 6.18315 14.2831 6.18315 18.4052C6.18315 28.36 6.18315 38.2943 6.18315 48.2492C6.18315 52.3713 8.75946 54.927 12.8816 54.927C24.3204 54.927 35.7592 54.927 47.198 54.927C47.466 54.927 47.7545 54.927 48.0843 54.927Z" fill="url(#paint0_linear_79_23)"/>
<path d="M79 50.1453C78.897 50.64 78.7733 51.1346 78.6702 51.6293C77.3924 57.0499 72.4665 61.0277 66.881 61.0895C65.7681 61.1101 64.6757 61.1101 63.5628 61.0895C61.8109 61.0483 60.4712 59.7086 60.4918 57.9979C60.4918 56.2873 61.8315 54.9682 63.604 54.927C65.0055 54.8858 66.4482 54.9888 67.8291 54.7621C70.6734 54.3087 72.8169 51.8148 72.8169 48.9293C72.8375 38.521 72.8581 28.1127 72.8169 17.7044C72.7963 14.448 70.0963 11.8098 66.8398 11.7274C65.7887 11.7068 64.7376 11.7274 63.6864 11.7068C61.8727 11.6862 60.5124 10.3671 60.5124 8.63582C60.5124 6.90453 61.8521 5.54424 63.6658 5.54424C65.8093 5.54424 67.994 5.33814 70.0963 6.01828C75.0016 7.6259 77.9489 10.9648 78.8764 16.0556C78.897 16.1999 78.9588 16.3441 79.0206 16.4884C79 27.7211 79 38.9332 79 50.1453Z" fill="url(#paint1_linear_79_23)"/>
<path d="M79 70.3436C78.3817 72.1985 77.0626 72.8787 75.1459 72.8375C71.2917 72.755 67.4375 72.8169 63.5834 72.8169C62.0788 72.8169 60.9246 71.8482 60.5742 70.426C60.2445 69.107 60.8628 67.6436 62.12 67.0459C62.6353 66.7986 63.2536 66.6749 63.8307 66.6749C67.6024 66.6337 71.3947 66.7162 75.1665 66.6337C77.0832 66.5925 78.4023 67.2726 79.0206 69.1276C79 69.5192 79 69.9314 79 70.3436Z" fill="url(#paint2_linear_79_23)"/>
<path d="M8.90374 78.9999C7.02819 78.9999 5.15264 78.9999 3.27708 78.9999C1.38092 78.9999 0.0206245 77.7015 1.40356e-05 75.9496C-0.0205965 74.1565 1.36031 72.8374 3.29769 72.8374C7.06941 72.8374 10.8411 72.8374 14.6129 72.8374C16.509 72.8374 17.8693 74.1359 17.8899 75.8878C17.9105 77.6809 16.5296 78.9999 14.5922 78.9999C12.7167 78.9999 10.7999 78.9999 8.90374 78.9999Z" fill="url(#paint3_linear_79_23)"/>
<path d="M45.3225 79C43.4469 79 41.5714 79 39.6958 79C37.779 79 36.3981 77.6604 36.4187 75.8673C36.4394 74.1154 37.8203 72.8375 39.6958 72.8169C43.4675 72.8169 47.2393 72.8169 51.011 72.8169C52.9071 72.8169 54.2674 74.0947 54.288 75.8673C54.3086 77.6604 52.9277 78.9794 51.011 78.9794C49.1148 79 47.2186 79 45.3225 79Z" fill="url(#paint4_linear_79_23)"/>
<path d="M27.1852 66.6543C28.2158 66.6543 29.2463 66.6337 30.2562 66.6543C32.0081 66.6955 33.3272 68.0558 33.3272 69.7459C33.3272 71.4153 32.0081 72.7756 30.2974 72.7962C28.1952 72.8375 26.0929 72.8375 23.9906 72.7962C22.3006 72.7756 20.9815 71.3741 21.0021 69.7047C21.0021 68.0352 22.3212 66.6955 24.0318 66.6543C25.0624 66.6337 26.1135 66.6543 27.1852 66.6543Z" fill="url(#paint5_linear_79_23)"/>
<path d="M17.9105 33.3066C17.9105 30.3181 17.9105 27.3502 17.9105 24.3616C17.9105 21.7647 18.9823 19.7655 21.3113 18.5907C23.6608 17.3953 25.928 17.7251 28.0303 19.3121C31.9669 22.28 35.9241 25.2273 39.8607 28.1952C43.5087 30.957 43.5087 35.6974 39.8401 38.4592C35.9035 41.4271 31.9463 44.3744 28.0097 47.3423C25.928 48.9087 23.6815 49.2385 21.3525 48.0843C19.0029 46.9095 17.9105 44.8897 17.9105 42.2515C17.9105 39.2836 17.9105 36.2951 17.9105 33.3066ZM24.1349 24.1143C24.1349 30.3181 24.1349 36.3775 24.1349 42.5401C28.257 39.4485 32.2966 36.4188 36.4187 33.3272C32.2966 30.2356 28.257 27.2059 24.1349 24.1143Z" fill="url(#paint6_linear_79_23)"/>
</g>
<defs>
<linearGradient id="paint0_linear_79_23" x1="2.40669" y1="6.32789" x2="77.2371" y2="62.6662" gradientUnits="userSpaceOnUse">
<stop stop-color="#F801C8"/>
<stop offset="0.526042" stop-color="#0100FF"/>
<stop offset="1" stop-color="#3699FF"/>
</linearGradient>
<linearGradient id="paint1_linear_79_23" x1="61.3124" y1="10.7924" x2="97.8373" y2="22.0375" gradientUnits="userSpaceOnUse">
<stop stop-color="#F801C8"/>
<stop offset="0.526042" stop-color="#0100FF"/>
<stop offset="1" stop-color="#3699FF"/>
</linearGradient>
<linearGradient id="paint2_linear_79_23" x1="61.3075" y1="67.2213" x2="65.955" y2="80.0389" gradientUnits="userSpaceOnUse">
<stop stop-color="#F801C8"/>
<stop offset="0.526042" stop-color="#0100FF"/>
<stop offset="1" stop-color="#3699FF"/>
</linearGradient>
<linearGradient id="paint3_linear_79_23" x1="0.792299" y1="73.4225" x2="5.5062" y2="86.0627" gradientUnits="userSpaceOnUse">
<stop stop-color="#F801C8"/>
<stop offset="0.526042" stop-color="#0100FF"/>
<stop offset="1" stop-color="#3699FF"/>
</linearGradient>
<linearGradient id="paint4_linear_79_23" x1="37.2101" y1="73.4039" x2="41.9558" y2="86.0725" gradientUnits="userSpaceOnUse">
<stop stop-color="#F801C8"/>
<stop offset="0.526042" stop-color="#0100FF"/>
<stop offset="1" stop-color="#3699FF"/>
</linearGradient>
<linearGradient id="paint5_linear_79_23" x1="21.5479" y1="67.232" x2="27.605" y2="78.3866" gradientUnits="userSpaceOnUse">
<stop stop-color="#F801C8"/>
<stop offset="0.526042" stop-color="#0100FF"/>
<stop offset="1" stop-color="#3699FF"/>
</linearGradient>
<linearGradient id="paint6_linear_79_23" x1="19.004" y1="20.8047" x2="53.4968" y2="46.2536" gradientUnits="userSpaceOnUse">
<stop stop-color="#F801C8"/>
<stop offset="0.526042" stop-color="#0100FF"/>
<stop offset="1" stop-color="#3699FF"/>
</linearGradient>
<clipPath id="clip0_79_23">
<rect width="79" height="79" fill="white"/>
</clipPath>
</defs>
</svg>
